<svg width="20px" height="20px" viewBox="0 0 200 200" >
                                    <title>Slice 1</title>
                                    <desc>Created with Sketch.</desc>
                                    <defs></defs>
                                    <g id="Page-1" stroke="none" strokeWidth="1" fill="none" fillRule="evenodd">
                                        <path d="M133.839541,33.0499577 C123.673031,27.9011839 112.17532,25 100,25 C92.0045182,25 84.3012543,26.2511339 77.0753061,28.5683042 C67.094416,31.7689113 58.0241823,37.0033774 50.3523851,43.7839224 C45.6100412,47.9753361 41.4020581,52.7575266 37.8436516,58.0152783 C33.9965109,63.6996514 30.9086387,69.9398921 28.7256344,76.590401 C26.3078175,83.9562649 25,91.8254039 25,100 M31.0848572,129.640849 C34.7746266,138.208163 40.0152292,145.950442 46.4531262,152.514147 C53.1505149,159.342415 61.1436616,164.895185 70.0345314,168.774422 C79.2123581,172.778863 89.3467919,175 100,175 C110.260888,175 120.040508,172.939444 128.947638,169.209553 M149.40559,156.429067 C159.42354,147.650904 167.083716,136.247799 171.312369,123.293501 C173.705884,115.961069 175,108.131663 175,100 C175,89.3623331 172.785339,79.241928 168.791936,70.0747041 C165.636818,62.8318415 161.371356,56.1839835 156.210542,50.3461224" id="Oval" stroke="#E22743" strokeWidth="50"></path>
                                    </g>
                                </svg>